#!OML:ASF X:\für Bonn\!DataBase\2005_08_10_Bjorn_Final\c3d\bjorn.ASF
:FULLY-SPECIFIED
:DEGREES
156
root -0.44915 19.677 3.77291 -189.876 -26.3764 -169.692
lowerback 6.19759 -5.20734 -1.52175
upperback 11.1006 -8.12695 -1.25532
thorax 8.27885 -4.5829 -0.64524
lowerneck -7.56212 -1.62004 0.577225
upperneck 21.1547 -5.06116 6.47185
head 7.93725 -2.26695 1.51149
rclavicle -1.02175e-013 4.45278e-014
rhumerus -35.7324 -2.04719 -79.9425
rradius 35.0904
rwrist 13.7472
rhand -9.85028 13.2914
rfingers 7.12502
rthumb 16.1278 -16.0575
lclavicle -1.02175e-013 4.45278e-014
lhumerus 7.63713 -18.7199 79.0764
lradius 77.4487
lwrist -0.409333
lhand -41.9212 -25.4644
lfingers 7.12502
lthumb -14.8192 3.98566
rfemur -47.4159 -6.67192 20.5948
rtibia 88.4572
rfoot -1.83239 -2.37598
rtoes -25.8125
lfemur -1.98658 -0.215575 -10.1844
ltibia 18.2228
lfoot -4.26012 -14.7019
ltoes 8.47705
157
root -0.481434 19.6718 3.7329 -189.301 -25.6708 -170.015
lowerback 5.20409 -5.29121 -1.32782
upperback 10.6337 -8.11762 -1.11617
thorax 8.31899 -4.51477 -0.67901
lowerneck -7.2174 -1.36331 0.772076
upperneck 21.5997 -4.66419 5.76002
head 7.98643 -2.14593 1.28215
rclavicle -6.24184e-014 -6.99722e-014
rhumerus -35.6008 -1.83254 -79.9438
rradius 35.7183
rwrist 13.8607
rhand -10.0342 13.3873
rfingers 7.12502
rthumb 15.9507 -15.9759
lclavicle -6.24184e-014 -6.99722e-014
lhumerus 5.44653 -19.6062 78.7193
lradius 75.6475
lwrist -0.375856
lhand -42.0085 -25.61
lfingers 7.12502
lthumb -14.9033 3.83394
rfemur -45.7741 -6.6069 20.4217
rtibia 86.5481
rfoot -2.34735 -2.89787
rtoes -26.1143
lfemur -2.23213 0.33601 -10.3924
ltibia 18.471
lfoot -4.59798 -14.6084
ltoes 8.43991
158
root -0.512844 19.6654 3.6915 -188.722 -24.9635 -170.333
lowerback 4.20066 -5.35087 -1.09893
upperback 10.1741 -8.08561 -0.982958
thorax 8.37125 -4.43516 -0.739498
lowerneck -6.82979 -1.13346 0.972669
upperneck 21.9643 -4.29187 5.04959
head 8.00568 -2.03858 1.04935
rclavicle 6.91771e-014 5.08889e-014
rhumerus -35.4422 -1.72483 -79.942
rradius 36.2922
rwrist 13.9722
rhand -10.1565 13.5046
rfingers 7.12502
rthumb 15.8329 -15.868
lclavicle 6.91771e-014 5.08889e-014
lhumerus 3.29674 -20.6177 78.4699
lradius 73.7855
lwrist -0.363023
lhand -42.2283 -25.8721
lfingers 7.12502
lthumb -15.115 3.556
rfemur -44.1635 -6.55396 20.2345
rtibia 84.6087
rfoot -2.90619 -3.35027
rtoes -26.5238
lfemur -2.52381 0.859682 -10.605
ltibia 18.7786
lfoot -4.95757 -14.4997
ltoes 8.55918
159
root -0.543215 19.6571 3.64845 -188.176 -24.2744 -170.624
lowerback 3.19869 -5.38329 -0.79861
upperback 9.73801 -8.03009 -0.873085
thorax 8.43916 -4.34142 -0.863427
lowerneck -6.35813 -0.923596 1.16951
upperneck 22.2319 -3.95082 4.40924
head 7.98335 -1.94401 0.837489
rclavicle 1.15295e-014 -7.15625e-014
rhumerus -35.3094 -1.76752 -79.9608
rradius 36.8644
rwrist 14.1852
rhand -10.2455 13.6543
rfingers 7.12502
rthumb 15.7472 -15.725
lclavicle 1.15295e-014 -7.15625e-014
lhumerus 1.14976 -21.7862 78.2784
lradius 72.0022
lwrist -0.250865
lhand -42.3983 -26.1287
lfingers 7.12502
lthumb -15.2789 3.28695
rfemur -42.5342 -6.55859 20.0591
rtibia 82.6336
rfoot -3.46592 -3.73051
rtoes -26.7472
lfemur -2.83616 1.37708 -10.7954
ltibia 19.1629
lfoot -5.33827 -14.4223
ltoes 8.82697
160
root -0.571817 19.645 3.60466 -187.629 -23.5848 -170.932
lowerback 2.20395 -5.40785 -0.511231
upperback 9.30321 -7.97654 -0.745003
thorax 8.51286 -4.2534 -0.960803
lowerneck -5.85402 -0.720898 1.21446
upperneck 22.4713 -3.60737 3.82585
head 7.95156 -1.85662 0.669608
rclavicle -6.48038e-014 -6.36111e-015
rhumerus -35.1731 -1.74211 -79.9719
rradius 37.4369
rwrist 14.3037
rhand -10.3143 13.7547
rfingers 7.12502
rthumb 15.681 -15.6299
lclavicle -6.48038e-014 -6.36111e-015
lhumerus -1.01708 -22.958 78.2676
lradius 70.2573
lwrist -0.142366
lhand -42.5535 -26.282
lfingers 7.12502
lthumb -15.4283 3.12227
rfemur -40.9398 -6.61224 19.857
rtibia 80.6409
rfoot -3.95674 -4.06634
rtoes -26.8007
lfemur -3.16856 1.92788 -11.0097
ltibia 19.5836
lfoot -5.77622 -14.3563
ltoes 8.72346
161
root -0.598855 19.6308 3.56028 -187.079 -22.8711 -171.234
lowerback 1.20635 -5.39685 -0.21872
upperback 8.8917 -7.89075 -0.606297
thorax 8.61844 -4.15327 -1.05018
lowerneck -5.40249 -0.528976 1.19952
upperneck 22.6962 -3.28577 3.31761
head 7.92939 -1.77622 0.533228
rclavicle 2.0276e-014 -9.38264e-014
rhumerus -34.9687 -1.75958 -79.9826
rradius 37.9439
rwrist 14.407
rhand -10.3884 13.8824
rfingers 7.12502
rthumb 15.6096 -15.5077
lclavicle 2.0276e-014 -9.38264e-014
lhumerus -3.1578 -24.2127 78.3906
lradius 68.5914
lwrist 0.1778
lhand -42.4979 -26.2973
lfingers 7.12502
lthumb -15.3748 3.11106
rfemur -39.3937 -6.73386 19.6589
rtibia 78.6577
rfoot -4.40695 -4.30191
rtoes -26.9197
lfemur -3.52768 2.53407 -11.2127
ltibia 20.0334
lfoot -6.18082 -14.3574
ltoes 8.85492
162
root -0.625702 19.6176 3.5156 -186.545 -22.1494 -171.532
lowerback 0.241248 -5.35652 0.0945181
upperback 8.48338 -7.7753 -0.497995
thorax 8.70462 -4.03899 -1.17523
lowerneck -4.85006 -0.356412 1.30521
upperneck 22.8208 -2.99567 2.79338
head 7.8566 -1.70462 0.3692
rclavicle -1.19271e-015 6.36111e-015
rhumerus -34.7903 -1.77828 -80.0615
rradius 38.4364
rwrist 14.3715
rhand -10.3918 13.9263
rfingers 7.12502
rthumb 15.6063 -15.4642
lclavicle -1.19271e-015 6.36111e-015
lhumerus -5.30402 -25.4555 78.6681
lradius 66.9297
lwrist 0.519947
lhand -42.1341 -26.1793
lfingers 7.12502
lthumb -15.0243 3.25556
rfemur -37.8763 -6.88321 19.444
rtibia 76.6972
rfoot -4.85827 -4.53641
rtoes -26.3881
lfemur -3.89084 3.11441 -11.4266
ltibia 20.5087
lfoot -6.59325 -14.3274
ltoes 9.04542
163
root -0.65074 19.6058 3.47099 -186.022 -21.4116 -171.846
lowerback -0.701071 -5.29507 0.345129
upperback 8.11186 -7.64577 -0.377375
thorax 8.83158 -3.9271 -1.2519
lowerneck -4.36831 -0.191568 1.49272
upperneck 22.958 -2.71092 2.19807
head 7.80145 -1.63208 0.165932
rclavicle 1.88845e-014 -4.77083e-015
rhumerus -34.5079 -1.76061 -80.1681
rradius 38.8399
rwrist 14.3243
rhand -10.443 13.9246
rfingers 7.12502
rthumb 15.557 -15.4697
lclavicle 1.88845e-014 -4.77083e-015
lhumerus -7.39499 -26.4448 79.2135
lradius 65.1963
lwrist 0.893781
lhand -41.414 -26.0124
lfingers 7.12502
lthumb -14.3305 3.47302
rfemur -36.3961 -7.08667 19.2059
rtibia 74.7476
rfoot -5.36296 -4.81707
rtoes -24.6799
lfemur -4.24573 3.72263 -11.657
ltibia 20.9972
lfoot -7.0365 -14.3063
ltoes 9.0163
164
root -0.674601 19.5913 3.42626 -185.49 -20.6448 -172.141
lowerback -1.64545 -5.2182 0.604346
upperback 7.7571 -7.50883 -0.239812
thorax 8.98223 -3.81418 -1.3144
lowerneck -3.97028 -0.0240267 1.65956
upperneck 23.1243 -2.42532 1.61912
head 7.77397 -1.55719 -0.0302489
rclavicle 2.08724e-014 -4.45278e-014
rhumerus -34.1595 -1.66917 -80.2895
rradius 39.197
rwrist 14.183
rhand -10.4809 13.8703
rfingers 7.12502
rthumb 15.5205 -15.5268
lclavicle 2.08724e-014 -4.45278e-014
lhumerus -9.42248 -27.1201 79.9994
lradius 63.3273
lwrist 1.15279
lhand -40.3549 -25.7833
lfingers 7.12502
lthumb -13.3099 3.77161
rfemur -34.9742 -7.32208 18.9992
rtibia 72.8021
rfoot -5.78633 -5.11522
rtoes -23.1026
lfemur -4.63259 4.39908 -11.8766
ltibia 21.4969
lfoot -7.48503 -14.3324
ltoes 8.88299
165
root -0.696886 19.5746 3.38183 -184.993 -19.8843 -172.409
lowerback -2.56216 -5.12283 0.9084
upperback 7.42839 -7.36172 -0.114742
thorax 9.1404 -3.69582 -1.40949
lowerneck -3.6282 0.131646 1.80656
upperneck 23.314 -2.17065 1.10198
head 7.76769 -1.49272 -0.206786
rclavicle -6.75868e-015 -1.11319e-014
rhumerus -33.7541 -1.69066 -80.4046
rradius 39.468
rwrist 14.1137
rhand -10.4931 13.8457
rfingers 7.12502
rthumb 15.5088 -15.5523
lclavicle -6.75868e-015 -1.11319e-014
lhumerus -11.396 -27.6867 80.8835
lradius 61.4074
lwrist 1.39586
lhand -39.1038 -25.6238
lfingers 7.12502
lthumb -12.1037 4.00607
rfemur -33.5586 -7.6565 18.8264
rtibia 70.8403
rfoot -6.12306 -5.40344
rtoes -21.9462
lfemur -5.01882 5.0902 -12.0653
ltibia 22.0234
lfoot -7.88812 -14.3794
ltoes 9.05335
166
root -0.716045 19.5558 3.33762 -184.491 -19.1129 -172.712
lowerback -3.43647 -5.01272 1.15735
upperback 7.10981 -7.19938 -0.00498489
thorax 9.29197 -3.57609 -1.48269
lowerneck -3.23158 0.276979 2.01266
upperneck 23.4028 -1.91952 0.571047
head 7.71926 -1.42393 -0.397024
rclavicle 4.33351e-014 4.77083e-015
rhumerus -33.3482 -1.7447 -80.5559
rradius 39.6921
rwrist 14.0377
rhand -10.5457 13.8139
rfingers 7.12502
rthumb 15.4581 -15.588
lclavicle 4.33351e-014 4.77083e-015
lhumerus -13.3076 -28.1321 81.8209
lradius 59.468
lwrist 1.57745
lhand -37.7675 -25.4092
lfingers 7.12502
lthumb -10.815 4.2924
rfemur -32.176 -8.03479 18.6261
rtibia 68.8688
rfoot -6.39509 -5.72177
rtoes -21.0936
lfemur -5.42497 5.82032 -12.2896
ltibia 22.5821
lfoot -8.2996 -14.4669
ltoes 9.09555
167
root -0.734667 19.5358 3.29385 -183.985 -18.3129 -173.013
lowerback -4.31656 -4.87798 1.41814
upperback 6.82346 -7.01726 0.106706
thorax 9.48385 -3.44792 -1.55804
lowerneck -2.90149 0.404654 2.20686
upperneck 23.4772 -1.67941 0.0192014
head 7.67955 -1.35908 -0.59361
rclavicle 4.8901e-014 -8.74653e-015
rhumerus -32.965 -1.81983 -80.6874
rradius 39.9426
rwrist 13.967
rhand -10.5599 13.8205
rfingers 7.12502
rthumb 15.4445 -15.5825
lclavicle 4.8901e-014 -8.74653e-015
lhumerus -15.1265 -28.4059 82.8177
lradius 57.4975
lwrist 1.65962
lhand -36.5309 -25.2804
lfingers 7.12502
lthumb -9.62202 4.47983
rfemur -30.8528 -8.50172 18.4353
rtibia 66.8851
rfoot -6.58075 -5.98938
rtoes -21.0599
lfemur -5.83204 6.51871 -12.5263
ltibia 23.133
lfoot -8.73745 -14.5033
ltoes 9.06366
